<svg xmlns="http://www.w3.org/2000/svg" width="660" height="326" viewBox="0 0 660 326">
<rect width="660" height="326" fill="white"/>
<text x="330" y="44" text-anchor="middle" font-size="16" font-weight="bold" font-family="sans-serif" fill="#1f2937">市場規模（億円）</text>
<text x="112" y="99" text-anchor="end" font-size="13" font-family="sans-serif" fill="#374151">2023年</text>
<rect x="120" y="76" width="67.90123456790124" height="36" fill="red" rx="2"/>
<text x="153.95061728395063" y="99" text-anchor="middle" font-size="12" font-family="sans-serif" fill="white">1.1</text>
<rect x="187.90123456790124" y="76" width="67.90123456790124" height="36" fill="#3b82f6" rx="2"/>
<text x="221.85185185185185" y="99" text-anchor="middle" font-size="12" font-family="sans-serif" fill="white">1.1</text>
<rect x="255.80246913580248" y="76" width="185.1851851851852" height="36" fill="#5B7E91" rx="2"/>
<text x="348.3950617283951" y="99" text-anchor="middle" font-size="12" font-family="sans-serif" fill="white">3</text>
<text x="446.98765432098764" y="99" text-anchor="start" font-size="12" font-family="sans-serif" fill="#6b7280">5.2</text>
<text x="112" y="151" text-anchor="end" font-size="13" font-family="sans-serif" fill="#374151">2024年</text>
<rect x="120" y="128" width="80.24691358024693" height="36" fill="red" rx="2"/>
<text x="160.12345679012347" y="151" text-anchor="middle" font-size="12" font-family="sans-serif" fill="white">1.3</text>
<rect x="200.24691358024694" y="128" width="92.5925925925926" height="36" fill="#3b82f6" rx="2"/>
<text x="246.54320987654324" y="151" text-anchor="middle" font-size="12" font-family="sans-serif" fill="white">1.5</text>
<rect x="292.83950617283955" y="128" width="61.7283950617284" height="36" fill="#5B7E91" rx="2"/>
<text x="323.70370370370375" y="151" text-anchor="middle" font-size="12" font-family="sans-serif" fill="white">1</text>
<text x="360.56790123456796" y="151" text-anchor="start" font-size="12" font-family="sans-serif" fill="#6b7280">3.8</text>
<text x="112" y="203" text-anchor="end" font-size="13" font-family="sans-serif" fill="#374151">2025年</text>
<rect x="120" y="180" width="370.3703703703704" height="36" fill="red" rx="2"/>
<text x="305.1851851851852" y="203" text-anchor="middle" font-size="12" font-family="sans-serif" fill="white">6</text>
<rect x="490.3703703703704" y="180" width="6.17283950617284" height="36" fill="#3b82f6" rx="2"/>
<rect x="496.54320987654324" y="180" width="123.4567901234568" height="36" fill="#5B7E91" rx="2"/>
<text x="558.2716049382716" y="203" text-anchor="middle" font-size="12" font-family="sans-serif" fill="white">2</text>
<text x="626" y="203" text-anchor="start" font-size="12" font-family="sans-serif" fill="#6b7280">8.1</text>
<rect x="120" y="252" width="14" height="14" fill="red" rx="2"/>
<text x="140" y="264" font-size="12" font-family="sans-serif" fill="#374151">A</text>
<rect x="220" y="252" width="14" height="14" fill="#3b82f6" rx="2"/>
<text x="240" y="264" font-size="12" font-family="sans-serif" fill="#374151">B</text>
<rect x="320" y="252" width="14" height="14" fill="#5B7E91" rx="2"/>
<text x="340" y="264" font-size="12" font-family="sans-serif" fill="#374151">C</text>
</svg>